<svg width="517" height="61" fill="none" xmlns="http://www.w3.org/2000/svg"><path d="M0 60.062V0h26.325c4.625 0 8.508.616 11.65 1.848 3.163 1.231 5.544 2.971 7.145 5.22 1.62 2.248 2.431 4.897 2.431 7.947 0 2.21-.494 4.223-1.482 6.042-.969 1.818-2.332 3.343-4.091 4.575-1.76 1.212-3.815 2.053-6.166 2.522v.586c2.608.098 4.98.753 7.114 1.965a13.561 13.561 0 0 1 5.1 4.956c1.264 2.093 1.897 4.556 1.897 7.39 0 3.285-.87 6.209-2.609 8.77-1.72 2.56-4.17 4.575-7.352 6.041-3.182 1.466-6.977 2.2-11.384 2.2H0ZM16.483 47.04h7.708c2.767 0 4.842-.508 6.225-1.525 1.384-1.036 2.075-2.56 2.075-4.575 0-1.407-.326-2.6-.978-3.578-.652-.977-1.581-1.72-2.787-2.228-1.185-.509-2.618-.763-4.298-.763h-7.945v12.67Zm0-22.757h6.759c1.443 0 2.717-.225 3.824-.675 1.107-.45 1.967-1.095 2.58-1.935.632-.86.948-1.907.948-3.138 0-1.858-.672-3.275-2.016-4.253-1.344-.997-3.043-1.495-5.099-1.495h-6.996v11.496Z" fill="url(#a)"/><path d="M55.763 60.062V0h16.483v23.462h21.819V0h16.483v60.062H94.065V36.6h-21.82v23.462H55.764Z" fill="url(#b)"/><path d="M118.374 0h16.483v31.439h.474L156.913 0h13.992v60.062h-16.482V28.506h-.356l-21.938 31.556h-13.755V0Z" fill="url(#c)"/><path d="M178.702 0h20.515l14.111 34.02h.711L228.151 0h20.514v60.062h-16.127V25.339h-.474l-13.519 34.253h-9.723l-13.518-34.488h-.475v34.958h-16.127V0Z" fill="url(#d)"/><path d="M272.248 60.062h-17.787L274.501 0h22.531l20.04 60.062h-17.787L286.004 16.54h-.475l-13.281 43.522Zm-3.32-23.697h33.44v12.2h-33.44v-12.2Z" fill="url(#e)"/><path d="M322.919 60.062V0h16.483v23.462h21.819V0h16.483v60.062h-16.483V36.6h-21.819v23.462h-16.483Z" fill="url(#f)"/><path d="M385.53 0h16.483v31.439h.474L424.069 0h13.993v60.062h-16.483V28.506h-.356l-21.937 31.556H385.53V0Z" fill="url(#g)"/><path d="M445.859 60.062V0h43.756v13.139h-27.274v10.323h25.021V36.6h-25.021v10.323h27.156v13.139h-43.638Z" fill="url(#h)"/><path d="m517 0-1.542 41.292H501.94L500.399 0H517Zm-8.301 61c-2.292 0-4.259-.792-5.899-2.376-1.621-1.603-2.421-3.548-2.401-5.836-.02-2.228.78-4.135 2.401-5.718 1.64-1.584 3.607-2.376 5.899-2.376 2.174 0 4.091.792 5.752 2.376 1.679 1.583 2.529 3.49 2.549 5.718-.02 1.526-.425 2.914-1.215 4.165a8.9 8.9 0 0 1-3.024 2.962A7.944 7.944 0 0 1 508.699 61Z" fill="url(#i)"/><defs><linearGradient id="a" x1="260.444" y1="0" x2="260.444" y2="61" gradientUnits="userSpaceOnUse"><stop stop-color="red" stop-opacity=".28"/><stop offset="1" stop-color="red" stop-opacity="0"/></linearGradient><linearGradient id="b" x1="260.444" y1="0" x2="260.444" y2="61" gradientUnits="userSpaceOnUse"><stop stop-color="red" stop-opacity=".28"/><stop offset="1" stop-color="red" stop-opacity="0"/></linearGradient><linearGradient id="c" x1="260.444" y1="0" x2="260.444" y2="61" gradientUnits="userSpaceOnUse"><stop stop-color="red" stop-opacity=".28"/><stop offset="1" stop-color="red" stop-opacity="0"/></linearGradient><linearGradient id="d" x1="260.444" y1="0" x2="260.444" y2="61" gradientUnits="userSpaceOnUse"><stop stop-color="red" stop-opacity=".28"/><stop offset="1" stop-color="red" stop-opacity="0"/></linearGradient><linearGradient id="e" x1="260.444" y1="0" x2="260.444" y2="61" gradientUnits="userSpaceOnUse"><stop stop-color="red" stop-opacity=".28"/><stop offset="1" stop-color="red" stop-opacity="0"/></linearGradient><linearGradient id="f" x1="260.444" y1="0" x2="260.444" y2="61" gradientUnits="userSpaceOnUse"><stop stop-color="red" stop-opacity=".28"/><stop offset="1" stop-color="red" stop-opacity="0"/></linearGradient><linearGradient id="g" x1="260.444" y1="0" x2="260.444" y2="61" gradientUnits="userSpaceOnUse"><stop stop-color="red" stop-opacity=".28"/><stop offset="1" stop-color="red" stop-opacity="0"/></linearGradient><linearGradient id="h" x1="260.444" y1="0" x2="260.444" y2="61" gradientUnits="userSpaceOnUse"><stop stop-color="red" stop-opacity=".28"/><stop offset="1" stop-color="red" stop-opacity="0"/></linearGradient><linearGradient id="i" x1="260.444" y1="0" x2="260.444" y2="61" gradientUnits="userSpaceOnUse"><stop stop-color="red" stop-opacity=".28"/><stop offset="1" stop-color="red" stop-opacity="0"/></linearGradient></defs></svg>