<svg xmlns="http://www.w3.org/2000/svg" width="1110" height="131" fill="none" viewBox="0 0 1110 131"><path fill="url(#a)" d="M0 128.985V0h56.52q14.894 0 25.014 3.968 10.184 3.968 15.34 11.21 5.218 7.243 5.218 17.068 0 7.118-3.182 12.974-3.12 5.858-8.784 9.825-5.664 3.905-13.239 5.416v1.26q8.403.315 15.276 4.22 6.874 3.841 10.948 10.644 4.073 6.739 4.073 15.87 0 10.582-5.601 18.832-5.537 8.25-15.785 12.974-10.247 4.724-24.44 4.724zm35.389-27.964h16.548q8.91 0 13.367-3.275 4.455-3.337 4.455-9.825 0-4.534-2.1-7.684-2.1-3.148-5.984-4.786-3.818-1.637-9.228-1.637H35.389zm0-48.873H49.9q4.647 0 8.211-1.449 3.564-1.447 5.538-4.156 2.037-2.771 2.036-6.74 0-5.982-4.328-9.131Q57.03 27.46 50.41 27.46H35.389z"/><path fill="url(#b)" d="M119.723 128.985V0h35.389v50.385h46.845V0h35.389v128.985h-35.389V78.6h-46.845v50.385z"/><path fill="url(#c)" d="M254.149 0h35.389v67.515h1.018L336.892 0h30.042v128.985h-35.388V61.217h-.764l-47.1 67.768h-29.533z"/><path fill="url(#d)" d="M383.674 0h44.045l30.296 73.058h1.528L489.84 0h44.045v128.985H499.26v-74.57h-1.019l-29.023 73.562h-20.877l-29.024-74.066h-1.018v75.074h-34.625z"/><path fill="url(#e)" d="M584.517 128.985h-38.189L589.354 0h48.373l43.027 128.985h-38.189L614.05 35.521h-1.018zm-7.129-50.889h71.796v26.2h-71.796z"/><path fill="url(#f)" d="M693.308 128.985V0h35.389v50.385h46.845V0h35.389v128.985h-35.389V78.6h-46.845v50.385z"/><path fill="url(#g)" d="M827.734 0h35.389v67.515h1.018L910.478 0h30.042v128.985h-35.389V61.217h-.764l-47.1 67.768h-29.533z"/><path fill="url(#h)" d="M957.259 128.985V0h93.941v28.215h-58.552v22.17h53.722V78.6h-53.722v22.169h58.302v28.216z"/><path fill="url(#i)" d="m1110 0-3.31 88.677h-29.02L1074.36 0zm-17.82 131c-4.92 0-9.15-1.7-12.67-5.101-3.48-3.443-5.2-7.621-5.15-12.534-.05-4.786 1.67-8.88 5.15-12.281 3.52-3.4 7.75-5.101 12.67-5.101 4.67 0 8.78 1.7 12.35 5.101 3.6 3.401 5.43 7.495 5.47 12.281q-.06 4.912-2.61 8.944a19.1 19.1 0 0 1-6.49 6.361c-2.67 1.553-5.58 2.33-8.72 2.33"/><defs><linearGradient id="a" x1="559.174" x2="559.174" y1="0" y2="131" gradientUnits="userSpaceOnUse"><stop stop-opacity=".1"/><stop offset="1" stop-opacity="0"/></linearGradient><linearGradient id="b" x1="559.174" x2="559.174" y1="0" y2="131" gradientUnits="userSpaceOnUse"><stop stop-opacity=".1"/><stop offset="1" stop-opacity="0"/></linearGradient><linearGradient id="c" x1="559.174" x2="559.174" y1="0" y2="131" gradientUnits="userSpaceOnUse"><stop stop-opacity=".1"/><stop offset="1" stop-opacity="0"/></linearGradient><linearGradient id="d" x1="559.174" x2="559.174" y1="0" y2="131" gradientUnits="userSpaceOnUse"><stop stop-opacity=".1"/><stop offset="1" stop-opacity="0"/></linearGradient><linearGradient id="e" x1="559.174" x2="559.174" y1="0" y2="131" gradientUnits="userSpaceOnUse"><stop stop-opacity=".1"/><stop offset="1" stop-opacity="0"/></linearGradient><linearGradient id="f" x1="559.174" x2="559.174" y1="0" y2="131" gradientUnits="userSpaceOnUse"><stop stop-opacity=".1"/><stop offset="1" stop-opacity="0"/></linearGradient><linearGradient id="g" x1="559.174" x2="559.174" y1="0" y2="131" gradientUnits="userSpaceOnUse"><stop stop-opacity=".1"/><stop offset="1" stop-opacity="0"/></linearGradient><linearGradient id="h" x1="559.174" x2="559.174" y1="0" y2="131" gradientUnits="userSpaceOnUse"><stop stop-opacity=".1"/><stop offset="1" stop-opacity="0"/></linearGradient><linearGradient id="i" x1="559.174" x2="559.174" y1="0" y2="131" gradientUnits="userSpaceOnUse"><stop stop-opacity=".1"/><stop offset="1" stop-opacity="0"/></linearGradient></defs></svg>