<?xml version="1.0" encoding="utf-8"?><svg viewBox="0 0 1110 100" xmlns="http://www.w3.org/2000/svg" xmlns:xlink="http://www.w3.org/1999/xlink"><style>:root>svg{display:none}:root>svg:target{display:block}</style><svg fill="none" viewBox="0 0 16 22" id="arrow-up" xmlns="http://www.w3.org/2000/svg"><path d="M9.031.585a1.444 1.444 0 0 0-.477-.303 1.358 1.358 0 0 0-1.097 0c-.178.069-.34.172-.477.303L1.202 6.363a1.45 1.45 0 0 0 2.051 2.051l3.308-3.322v15.297a1.444 1.444 0 1 0 2.889 0V5.092l3.308 3.322a1.45 1.45 0 0 0 2.05-2.051L9.032.585Z" fill="currentColor"/></svg><svg fill="none" viewBox="0 0 24 24" id="bracket-gt" xmlns="http://www.w3.org/2000/svg"><path d="M8.4 1.2 6.72 3l8.88 9-8.88 9 1.68 1.8L19.2 12 8.4 1.2Z" fill="currentColor"/></svg><svg fill="none" viewBox="0 0 24 24" id="bracket-lt" xmlns="http://www.w3.org/2000/svg"><path d="m15.6 22.8 1.68-1.8-8.88-9 8.88-9-1.68-1.8L4.8 12l10.8 10.8Z" fill="currentColor"/></svg><svg fill="none" preserveAspectRatio="none" viewBox="0 0 1110 100" id="common-bottom" xmlns="http://www.w3.org/2000/svg"><path d="M0 0v21.905c0 3.682 3.012 6.666 6.727 6.666h356.546c3.715 0 6.727 2.985 6.727 6.667v27.143c0 3.682 3.012 6.667 6.727 6.667h356.546c3.715 0 6.727 2.984 6.727 6.666v17.62c0 3.681 3.012 6.666 6.727 6.666h356.543c3.72 0 6.73-2.985 6.73-6.667V0H0Z" fill="currentColor"/></svg><svg fill="none" preserveAspectRatio="none" viewBox="0 0 1110 100" id="common-top" xmlns="http://www.w3.org/2000/svg"><path d="M1110 100V78.095c0-3.682-3.01-6.666-6.73-6.666H746.727c-3.715 0-6.727-2.985-6.727-6.667V37.619c0-3.682-3.012-6.667-6.727-6.667H376.727c-3.715 0-6.727-2.984-6.727-6.666V6.666C370 2.986 366.988 0 363.273 0H6.727C3.012 0 0 2.985 0 6.667V100h1110Z" fill="currentColor"/></svg><svg fill="none" viewBox="0 0 40 40" id="cross" xmlns="http://www.w3.org/2000/svg"><path d="m6.4 5.965 28.8 28.8m-28.8 0 28.8-28.8" stroke="#C21515" stroke-width="1.6"/></svg><svg fill="none" viewBox="0 0 30 30" id="icon-check" xmlns="http://www.w3.org/2000/svg"><path d="M7.5 3.75A3.75 3.75 0 0 0 3.75 7.5v5.625a.937.937 0 0 1-.938.938.938.938 0 0 0 0 1.874.938.938 0 0 1 .938.938V22.5a3.75 3.75 0 0 0 3.75 3.75.938.938 0 0 0 0-1.875A1.875 1.875 0 0 1 5.625 22.5v-5.625c0-.72-.27-1.378-.716-1.875a2.797 2.797 0 0 0 .716-1.875V7.5A1.875 1.875 0 0 1 7.5 5.625a.937.937 0 1 0 0-1.875Zm15 0a3.75 3.75 0 0 1 3.75 3.75v5.625a.938.938 0 0 0 .938.938.938.938 0 0 1 0 1.874.938.938 0 0 0-.938.938V22.5a3.75 3.75 0 0 1-3.75 3.75.938.938 0 0 1 0-1.875 1.875 1.875 0 0 0 1.875-1.875v-5.625c0-.72.27-1.378.716-1.875a2.812 2.812 0 0 1-.716-1.875V7.5A1.875 1.875 0 0 0 22.5 5.625a.937.937 0 0 1 0-1.875ZM15 22.5a7.5 7.5 0 1 0 0-15 7.5 7.5 0 0 0 0 15Zm2.149-10.039a.936.936 0 0 1 1.327 0 .936.936 0 0 1 0 1.328l-3.75 3.75a.936.936 0 0 1-1.327 0l-1.875-1.875a.936.936 0 0 1 0-1.328.936.936 0 0 1 1.327 0l1.211 1.213 3.087-3.088Z" fill="#00B700"/></svg><svg fill="none" viewBox="0 0 30 30" id="icon-fail" xmlns="http://www.w3.org/2000/svg"><path d="M5.049 26a2.901 2.901 0 0 1-2.902-2.901V6.9A2.901 2.901 0 0 1 5.05 4h1.09a.842.842 0 1 1 0 1.684h-.66c-.83 0-1.504.673-1.504 1.503v15.626c0 .83.673 1.503 1.503 1.503h.661a.842.842 0 0 1 0 1.684H5.049ZM25.246 4a2.901 2.901 0 0 1 2.902 2.901V23.1a2.901 2.901 0 0 1-2.903 2.9h-1.092a.842.842 0 1 1 0-1.684h.66c.83 0 1.504-.673 1.504-1.503V7.187c0-.83-.673-1.503-1.503-1.503h-.661a.842.842 0 1 1 0-1.684h1.092Zm-2.098 17a2 2 0 0 1-2 2h-12a2 2 0 0 1-2-2V9a2 2 0 0 1 2-2h12a2 2 0 0 1 2 2v12ZM10.038 9c-.772 0-1.177.884-.657 1.435l3.764 3.988a.835.835 0 0 1 0 1.154L9.38 19.565c-.52.55-.115 1.435.656 1.435h.111a.904.904 0 0 0 .647-.27l4.29-4.397a.16.16 0 0 1 .114-.047.16.16 0 0 1 .116.049l4.15 4.386a.909.909 0 0 0 .656.279h.137c.766 0 1.173-.874.664-1.427l-3.688-4.004a.835.835 0 0 1 0-1.138l3.688-4.004C21.43 9.874 21.024 9 20.258 9h-.139c-.248 0-.485.1-.653.276l-4.22 4.42a.16.16 0 0 1-.23 0l-4.22-4.42A.903.903 0 0 0 10.144 9h-.107Z" fill="#C21515"/></svg><svg fill="none" viewBox="0 0 51 50" id="icon-handshake" xmlns="http://www.w3.org/2000/svg"><path d="m26.234 13.257-6.655 5.391a2.672 2.672 0 0 0-.482 3.65 2.669 2.669 0 0 0 3.802.537l6.827-5.308a1.104 1.104 0 0 1 1.547.193 1.098 1.098 0 0 1-.192 1.547l-1.437 1.114 9.556 8.8v-12.98h-.048l-.268-.173-4.992-3.197A6.56 6.56 0 0 0 30.36 11.8a6.58 6.58 0 0 0-4.125 1.457Zm1.567 8.554-3.554 2.764a4.868 4.868 0 0 1-6.93-.977 4.875 4.875 0 0 1 .873-6.655l5.72-4.628a6.496 6.496 0 0 0-2.53-.508 6.505 6.505 0 0 0-3.63 1.093l-4.95 3.3v15.402h1.939l6.284 5.734a3.296 3.296 0 0 0 4.66-.213c.379-.42.633-.908.764-1.416l1.169 1.072a3.302 3.302 0 0 0 5.342-1.334 3.302 3.302 0 0 0 4.07-5.177L27.8 21.81ZM5.1 16.2c-.605 0-1.1.494-1.1 1.1v14.3c0 1.218.983 2.2 2.2 2.2h2.2c1.217 0 2.2-.982 2.2-2.2V16.2H5.1Zm2.2 13.2a1.1 1.1 0 1 1 0 2.2 1.1 1.1 0 0 1 0-2.2Zm34.1-13.2v15.4c0 1.218.983 2.2 2.2 2.2h2.2c1.217 0 2.2-.982 2.2-2.2V17.3c0-.606-.495-1.1-1.1-1.1h-5.5Zm2.2 14.3a1.1 1.1 0 1 1 2.2 0 1.1 1.1 0 0 1-2.2 0Z" fill="#B3B3B3"/></svg><svg fill="none" viewBox="0 0 51 51" id="icon-server" xmlns="http://www.w3.org/2000/svg"><path fill-rule="evenodd" clip-rule="evenodd" d="M46 39.42a1.37 1.37 0 0 0-1.396-1.34H29.45a3.66 3.66 0 0 0-2.054-1.978v-5.628h11.628c3.08 0 5.58-2.404 5.58-5.368 0-2.964-2.5-5.37-5.58-5.37 3.08 0 5.58-2.402 5.58-5.368 0-2.964-2.5-5.368-5.58-5.368H12.976c-3.08 0-5.58 2.404-5.58 5.368 0 2.964 2.5 5.368 5.58 5.368-3.08 0-5.58 2.404-5.58 5.37 0 2.964 2.5 5.368 5.58 5.368h11.628v5.628a3.669 3.669 0 0 0-2.054 1.978H7.396c-.772 0-1.396.6-1.396 1.34 0 .74.624 1.344 1.396 1.344H22.55A3.72 3.72 0 0 0 26 43c1.56 0 2.9-.926 3.45-2.236h15.154c.772 0 1.396-.6 1.396-1.344ZM26.466 14.37c0-.74.624-1.34 1.394-1.34h11.164c.77 0 1.394.6 1.394 1.34 0 .74-.624 1.342-1.394 1.342H27.86a1.37 1.37 0 0 1-1.394-1.342Zm0 10.74c0-.742.624-1.342 1.394-1.342h11.164c.77 0 1.394.6 1.394 1.34 0 .74-.624 1.344-1.394 1.344H27.86a1.37 1.37 0 0 1-1.394-1.342Zm-11.628-8.952c1.026 0 1.86-.8 1.86-1.79 0-.988-.834-1.79-1.86-1.79-1.026 0-1.86.802-1.86 1.79s.832 1.79 1.86 1.79Zm0 10.736c1.026 0 1.86-.8 1.86-1.788 0-.99-.834-1.79-1.86-1.79-1.026 0-1.86.8-1.86 1.79 0 .988.832 1.788 1.86 1.788Z" fill="#B3B3B3"/></svg><svg fill="none" viewBox="0 0 50 50" id="icon-switch" xmlns="http://www.w3.org/2000/svg"><path d="M22.3 24a4.946 4.946 0 0 1 4.942 4.942 4.943 4.943 0 0 1-4.942 4.946H9.942a4.946 4.946 0 0 1-3.495-8.44A4.943 4.943 0 0 1 9.942 24H22.3ZM9.263 26.042a2.842 2.842 0 1 0 0 5.685 2.842 2.842 0 0 0 0-5.685ZM22.3 35.309a4.946 4.946 0 0 1 4.942 4.942 4.943 4.943 0 0 1-4.942 4.945H9.942a4.946 4.946 0 0 1-3.495-8.44 4.943 4.943 0 0 1 3.495-1.447H22.3ZM9.263 37.35a2.842 2.842 0 1 0 0 5.684 2.842 2.842 0 0 0 0-5.684ZM40.879 6a4.253 4.253 0 0 1 3.006 7.257 4.254 4.254 0 0 1-3.006 1.247H30.25a4.254 4.254 0 0 1-3.006-7.259A4.251 4.251 0 0 1 30.251 6h10.628ZM29.666 7.757a2.444 2.444 0 1 0 0 4.888 2.444 2.444 0 0 0 0-4.888Zm11.213 7.969a4.253 4.253 0 0 1 3.006 7.257 4.254 4.254 0 0 1-3.006 1.247H30.25a4.254 4.254 0 0 1-3.006-7.259 4.251 4.251 0 0 1 3.006-1.245h10.628Zm-11.213 1.757a2.445 2.445 0 1 0 0 4.89 2.445 2.445 0 0 0 0-4.89Z" fill="#B3B3B3"/><path d="M10.08 20.518v-4.055a6.757 6.757 0 0 1 6.766-6.759h3.148m-6.776 7.66-3.132 3.152L7 17.364M17.296 7 20 9.702l-2.704 2.704" stroke="#B3B3B3" stroke-width="2.386" stroke-linecap="round" stroke-linejoin="round"/></svg><svg fill="none" viewBox="0 0 51 50" id="icon-translate" xmlns="http://www.w3.org/2000/svg"><path d="m16.783 23.629-1.29 4.048h2.58l-1.29-4.048Z" fill="#B3B3B3"/><path d="M41.687 6H21.042v6.53h5.16v2.61H9.43c-2.194 0-3.871 1.698-3.871 3.918v14.365c0 2.22 1.677 3.917 3.87 3.917h1.29V44l8.13-6.66h8.645V28.2h14.194c2.193 0 3.87-1.698 3.87-3.918V9.918c0-2.22-1.677-3.918-3.87-3.918ZM19.493 31.986l-.645-2.09h-4l-.774 2.09h-3.097l4.258-11.622h3.097l4.258 11.622h-3.097ZM39.106 21.67v2.612c-1.677 0-3.484-.523-5.032-1.306-1.549.784-3.355 1.175-5.161 1.306l-.13-2.612a9.68 9.68 0 0 0 2.71-.392 8.95 8.95 0 0 1-2.322-4.178h2.71c.386 1.175 1.16 2.089 2.064 2.872 1.42-1.175 2.322-2.872 2.451-4.831h-7.742v-2.612h3.871V9.918h2.581v2.611h4.258l.13 1.306c.128 2.742-.904 5.485-2.84 7.443.904.262 1.678.392 2.452.392Z" fill="#B3B3B3"/></svg></svg>