<svg width="51" height="50" viewBox="0 0 51 50" fill="none" xmlns="http://www.w3.org/2000/svg">
<path d="M26.2337 13.2574L19.5788 18.648C18.4719 19.5418 18.2588 21.1507 19.0975 22.2989C19.9844 23.5228 21.71 23.7635 22.8994 22.8352L29.7263 17.5272C30.2075 17.1559 30.895 17.2385 31.2731 17.7197C31.6513 18.201 31.5619 18.8886 31.0806 19.2668L29.6438 20.3806L39.2 29.1815V16.2002H39.1519L38.8838 16.0283L33.8925 12.8312C32.8406 12.1573 31.61 11.7998 30.3587 11.7998C28.86 11.7998 27.4025 12.3155 26.2337 13.2574ZM27.8013 21.8108L24.2469 24.5748C22.0813 26.2662 18.9394 25.8262 17.3169 23.5984C15.7906 21.5014 16.1756 18.5723 18.19 16.9428L23.91 12.3155C23.1125 11.9786 22.2531 11.8067 21.38 11.8067C20.0875 11.7998 18.8294 12.1848 17.75 12.8999L12.8 16.2002V31.6017H14.7388L21.0225 37.336C22.37 38.5668 24.4531 38.4705 25.6838 37.1229C26.0619 36.7035 26.3162 36.2153 26.4469 35.7065L27.6156 36.7791C28.9563 38.0098 31.0462 37.9204 32.2769 36.5797C32.5863 36.2428 32.8131 35.8509 32.9575 35.4452C34.2913 36.339 36.1063 36.1534 37.2269 34.9295C38.4575 33.5888 38.3681 31.4986 37.0275 30.2678L27.8013 21.8108ZM5.1 16.2002C4.495 16.2002 4 16.6953 4 17.3003V31.6017C4 32.8187 4.98312 33.8019 6.2 33.8019H8.4C9.61688 33.8019 10.6 32.8187 10.6 31.6017V16.2002H5.1ZM7.3 29.4015C7.59174 29.4015 7.87153 29.5174 8.07782 29.7237C8.28411 29.93 8.4 30.2098 8.4 30.5016C8.4 30.7934 8.28411 31.0732 8.07782 31.2795C7.87153 31.4858 7.59174 31.6017 7.3 31.6017C7.00826 31.6017 6.72847 31.4858 6.52218 31.2795C6.31589 31.0732 6.2 30.7934 6.2 30.5016C6.2 30.2098 6.31589 29.93 6.52218 29.7237C6.72847 29.5174 7.00826 29.4015 7.3 29.4015ZM41.4 16.2002V31.6017C41.4 32.8187 42.3831 33.8019 43.6 33.8019H45.8C47.0169 33.8019 48 32.8187 48 31.6017V17.3003C48 16.6953 47.505 16.2002 46.9 16.2002H41.4ZM43.6 30.5016C43.6 30.2098 43.7159 29.93 43.9222 29.7237C44.1285 29.5174 44.4083 29.4015 44.7 29.4015C44.9917 29.4015 45.2715 29.5174 45.4778 29.7237C45.6841 29.93 45.8 30.2098 45.8 30.5016C45.8 30.7934 45.6841 31.0732 45.4778 31.2795C45.2715 31.4858 44.9917 31.6017 44.7 31.6017C44.4083 31.6017 44.1285 31.4858 43.9222 31.2795C43.7159 31.0732 43.6 30.7934 43.6 30.5016Z" fill="#B3B3B3"/>
</svg>
