<svg width="50" height="50" viewBox="0 0 50 50" fill="none" xmlns="http://www.w3.org/2000/svg">
<path d="M22.2998 24C23.6103 24.0007 24.8672 24.5216 25.7939 25.4482C26.7207 26.375 27.2415 27.6318 27.2422 28.9424C27.2422 30.2532 26.7218 31.5106 25.7949 32.4375C24.868 33.3644 23.6106 33.8877 22.2998 33.8877H9.94238C8.63159 33.8877 7.37414 33.3644 6.44727 32.4375C5.52044 31.5106 5 30.2532 5 28.9424C5.00003 27.6316 5.52039 26.3741 6.44727 25.4473C7.37414 24.5204 8.63159 24 9.94238 24H22.2998ZM9.2627 26.042C7.69338 26.0422 6.42112 27.3145 6.4209 28.8838C6.4209 30.4533 7.69325 31.7264 9.2627 31.7266C10.8323 31.7266 12.1055 30.4534 12.1055 28.8838C12.1052 27.3144 10.8321 26.042 9.2627 26.042Z" fill="#B3B3B3"/>
<path d="M22.2998 35.3086C23.6103 35.3093 24.8672 35.8302 25.7939 36.7568C26.7207 37.6836 27.2415 38.9404 27.2422 40.251C27.2422 41.5618 26.7218 42.8192 25.7949 43.7461C24.868 44.673 23.6106 45.1963 22.2998 45.1963H9.94238C8.63159 45.1963 7.37414 44.673 6.44727 43.7461C5.52044 42.8192 5 41.5618 5 40.251C5.00003 38.9402 5.52039 37.6827 6.44727 36.7559C7.37414 35.829 8.63159 35.3086 9.94238 35.3086H22.2998ZM9.2627 37.3506C7.69338 37.3508 6.42112 38.6231 6.4209 40.1924C6.4209 41.7619 7.69325 43.035 9.2627 43.0352C10.8323 43.0352 12.1055 41.762 12.1055 40.1924C12.1052 38.623 10.8322 37.3506 9.2627 37.3506Z" fill="#B3B3B3"/>
<path d="M40.8789 6C42.006 6.00063 43.0868 6.44909 43.8838 7.24609C44.6807 8.04312 45.1293 9.12388 45.1299 10.251C45.1298 11.3783 44.6819 12.4597 43.8848 13.2568C43.0876 14.0539 42.0062 14.5039 40.8789 14.5039H30.251C29.1237 14.5039 28.0423 14.0539 27.2451 13.2568C26.448 12.4597 26.0001 11.3783 26 10.251C26 9.12361 26.4479 8.04229 27.2451 7.24512C28.0423 6.44795 29.1236 6 30.251 6H40.8789ZM29.666 7.75684C28.3164 7.75702 27.2219 8.85062 27.2217 10.2002C27.2217 11.55 28.3163 12.6444 29.666 12.6445C31.0159 12.6445 32.1104 11.5501 32.1104 10.2002C32.1101 8.8505 31.0158 7.75684 29.666 7.75684Z" fill="#B3B3B3"/>
<path d="M40.8789 15.7261C42.006 15.7267 43.0868 16.1752 43.8838 16.9722C44.6807 17.7692 45.1293 18.85 45.1299 19.9771C45.1298 21.1043 44.6819 22.1858 43.8848 22.9829C43.0876 23.78 42.0062 24.2299 40.8789 24.23H30.251C29.1237 24.23 28.0423 23.7799 27.2451 22.9829C26.448 22.1858 26.0001 21.1043 26 19.9771C26 18.8497 26.4479 17.7684 27.2451 16.9712C28.0423 16.174 29.1236 15.7261 30.251 15.7261H40.8789ZM29.666 17.4829C28.3163 17.4831 27.2217 18.5774 27.2217 19.9272C27.2218 21.2769 28.3164 22.3714 29.666 22.3716C31.0158 22.3716 32.1102 21.277 32.1104 19.9272C32.1104 18.5773 31.0159 17.4829 29.666 17.4829Z" fill="#B3B3B3"/>
<path d="M10.0809 20.5182V16.4631C10.0806 15.5749 10.2555 14.6954 10.5954 13.8749C10.9354 13.0544 11.4337 12.3089 12.062 11.6812C12.6903 11.0534 13.4362 10.5556 14.257 10.2164C15.0778 9.87714 15.9575 9.70302 16.8456 9.70402H19.9943M13.2183 17.3638L10.0865 20.5163L7 17.3638M17.296 7L20 9.70213L17.296 12.4061" stroke="#B3B3B3" stroke-width="2.38561" stroke-linecap="round" stroke-linejoin="round"/>
</svg>
