<svg width="51" height="51" viewBox="0 0 51 51" fill="none" xmlns="http://www.w3.org/2000/svg">
<path fill-rule="evenodd" clip-rule="evenodd" d="M46 39.4198C45.9921 39.0572 45.8407 38.7124 45.579 38.4612C45.3173 38.21 44.9667 38.0729 44.604 38.0798H29.45C29.2574 37.6295 28.9764 37.2223 28.6236 36.8826C28.2707 36.5428 27.8533 36.2773 27.396 36.1018V30.4739H39.024C42.104 30.4739 44.604 28.0699 44.604 25.1059C44.604 22.1419 42.104 19.7359 39.024 19.7359C42.104 19.7359 44.604 17.334 44.604 14.368C44.604 11.404 42.104 9 39.024 9H12.976C9.896 9 7.396 11.404 7.396 14.368C7.396 17.332 9.896 19.7359 12.976 19.7359C9.896 19.7359 7.396 22.1399 7.396 25.1059C7.396 28.0699 9.896 30.4739 12.976 30.4739H24.604V36.1018C23.672 36.4658 22.928 37.1818 22.55 38.0798H7.396C6.624 38.0798 6 38.6798 6 39.4198C6 40.1598 6.624 40.7638 7.396 40.7638H22.55C22.8417 41.4343 23.3244 42.004 23.938 42.4017C24.5516 42.7994 25.2688 43.0074 26 42.9998C27.56 42.9998 28.9 42.0738 29.45 40.7638H44.604C45.376 40.7638 46 40.1638 46 39.4198ZM26.466 14.37C26.466 13.63 27.09 13.03 27.86 13.03H39.024C39.794 13.03 40.418 13.63 40.418 14.37C40.418 15.11 39.794 15.712 39.024 15.712H27.86C27.4977 15.7184 27.1475 15.581 26.8863 15.3299C26.625 15.0787 26.4739 14.7323 26.466 14.37ZM26.466 25.1099C26.466 24.3679 27.09 23.7679 27.86 23.7679H39.024C39.794 23.7679 40.418 24.3679 40.418 25.1079C40.418 25.8479 39.794 26.4519 39.024 26.4519H27.86C27.4973 26.4583 27.1469 26.3207 26.8856 26.0691C26.6242 25.8175 26.4734 25.4726 26.466 25.1099ZM14.838 16.158C15.864 16.158 16.698 15.358 16.698 14.368C16.698 13.38 15.864 12.578 14.838 12.578C13.812 12.578 12.978 13.38 12.978 14.368C12.978 15.356 13.81 16.158 14.838 16.158ZM14.838 26.8939C15.864 26.8939 16.698 26.0939 16.698 25.1059C16.698 24.1159 15.864 23.3159 14.838 23.3159C13.812 23.3159 12.978 24.1159 12.978 25.1059C12.978 26.0939 13.81 26.8939 14.838 26.8939Z" fill="#B3B3B3"/>
</svg>
