<svg width="30" height="30" viewBox="0 0 30 30" fill="none" xmlns="http://www.w3.org/2000/svg">
<path d="M5.04887 26C3.44647 26 2.14746 24.701 2.14746 23.0986V6.90141C2.14746 5.29901 3.44647 4 5.04887 4H6.14096C6.60609 4 6.98315 4.37706 6.98315 4.84219C6.98315 5.30732 6.60609 5.68438 6.14096 5.68438H5.48017C4.65009 5.68438 3.97718 6.35728 3.97718 7.18736V22.8126C3.97718 23.6427 4.65009 24.3156 5.48017 24.3156H6.14096C6.60609 24.3156 6.98315 24.6927 6.98315 25.1578C6.98315 25.6229 6.60609 26 6.14096 26H5.04887Z" fill="#C21515"/>
<path d="M25.246 4C26.8485 4 28.1475 5.29901 28.1475 6.90142V23.0986C28.1475 24.701 26.8485 26 25.246 26H24.154C23.6888 26 23.3118 25.6229 23.3118 25.1578C23.3118 24.6927 23.6888 24.3156 24.154 24.3156H24.8148C25.6448 24.3156 26.3177 23.6427 26.3177 22.8126V7.18736C26.3177 6.35729 25.6448 5.68438 24.8148 5.68438H24.154C23.6888 5.68438 23.3118 5.30732 23.3118 4.84219C23.3118 4.37706 23.6888 4 24.154 4H25.246Z" fill="#C21515"/>
<path d="M23.1475 21C23.1475 22.1046 22.252 23 21.1475 23H9.14746C8.04289 23 7.14746 22.1046 7.14746 21V9C7.14746 7.89543 8.04289 7 9.14746 7H21.1475C22.252 7 23.1475 7.89543 23.1475 9V21ZM10.0371 9C9.26583 9.00008 8.86143 9.8842 9.38086 10.4346L13.1445 14.4229C13.4533 14.75 13.4533 15.25 13.1445 15.5771L9.38086 19.5654C8.86143 20.1158 9.26583 20.9999 10.0371 21H10.1484C10.3931 21 10.6271 20.9024 10.7949 20.7305L15.085 16.333C15.1146 16.3028 15.1561 16.2861 15.1992 16.2861C15.2433 16.2862 15.2857 16.3035 15.3154 16.335L19.4658 20.7207C19.634 20.8984 19.8718 20.9999 20.1211 21H20.2578C21.0239 20.9999 21.4307 20.126 20.9219 19.5732L17.2344 15.5693C16.9353 15.2446 16.9353 14.7554 17.2344 14.4307L20.9219 10.4268C21.4307 9.874 21.0239 9.00007 20.2578 9H20.1191C19.8711 9 19.6339 9.10032 19.4658 9.27637L15.2461 13.6953C15.2165 13.7262 15.1745 13.7441 15.1309 13.7441C15.0872 13.7441 15.0452 13.7263 15.0156 13.6953L10.7959 9.27637C10.6279 9.10042 10.3915 9.0001 10.1436 9H10.0371Z" fill="#C21515"/>
</svg>
