<svg width="30" height="30" viewBox="0 0 30 30" fill="none" xmlns="http://www.w3.org/2000/svg">
<path d="M7.5 3.75C6.50544 3.75 5.55161 4.14509 4.84835 4.84835C4.14509 5.55161 3.75 6.50544 3.75 7.5V13.125C3.75 13.3736 3.65123 13.6121 3.47541 13.7879C3.2996 13.9637 3.06114 14.0625 2.8125 14.0625C2.56386 14.0625 2.3254 14.1613 2.14959 14.3371C1.97377 14.5129 1.875 14.7514 1.875 15C1.875 15.2486 1.97377 15.4871 2.14959 15.6629C2.3254 15.8387 2.56386 15.9375 2.8125 15.9375C3.06114 15.9375 3.2996 16.0363 3.47541 16.2121C3.65123 16.3879 3.75 16.6264 3.75 16.875V22.5C3.75 23.4946 4.14509 24.4484 4.84835 25.1516C5.55161 25.8549 6.50544 26.25 7.5 26.25C7.74864 26.25 7.9871 26.1512 8.16291 25.9754C8.33873 25.7996 8.4375 25.5611 8.4375 25.3125C8.4375 25.0639 8.33873 24.8254 8.16291 24.6496C7.9871 24.4738 7.74864 24.375 7.5 24.375C7.00272 24.375 6.52581 24.1775 6.17417 23.8258C5.82254 23.4742 5.625 22.9973 5.625 22.5V16.875C5.625 16.155 5.355 15.4969 4.90875 15C5.355 14.5031 5.625 13.845 5.625 13.125V7.5C5.625 7.00272 5.82254 6.52581 6.17417 6.17417C6.52581 5.82254 7.00272 5.625 7.5 5.625C7.74864 5.625 7.9871 5.52623 8.16291 5.35041C8.33873 5.1746 8.4375 4.93614 8.4375 4.6875C8.4375 4.43886 8.33873 4.2004 8.16291 4.02459C7.9871 3.84877 7.74864 3.75 7.5 3.75ZM22.5 3.75C23.4946 3.75 24.4484 4.14509 25.1516 4.84835C25.8549 5.55161 26.25 6.50544 26.25 7.5V13.125C26.25 13.3736 26.3488 13.6121 26.5246 13.7879C26.7004 13.9637 26.9389 14.0625 27.1875 14.0625C27.4361 14.0625 27.6746 14.1613 27.8504 14.3371C28.0262 14.5129 28.125 14.7514 28.125 15C28.125 15.2486 28.0262 15.4871 27.8504 15.6629C27.6746 15.8387 27.4361 15.9375 27.1875 15.9375C26.9389 15.9375 26.7004 16.0363 26.5246 16.2121C26.3488 16.3879 26.25 16.6264 26.25 16.875V22.5C26.25 23.4946 25.8549 24.4484 25.1516 25.1516C24.4484 25.8549 23.4946 26.25 22.5 26.25C22.2514 26.25 22.0129 26.1512 21.8371 25.9754C21.6613 25.7996 21.5625 25.5611 21.5625 25.3125C21.5625 25.0639 21.6613 24.8254 21.8371 24.6496C22.0129 24.4738 22.2514 24.375 22.5 24.375C22.9973 24.375 23.4742 24.1775 23.8258 23.8258C24.1775 23.4742 24.375 22.9973 24.375 22.5V16.875C24.375 16.155 24.645 15.4969 25.0912 15C24.63 14.4844 24.375 13.8168 24.375 13.125V7.5C24.375 7.00272 24.1775 6.52581 23.8258 6.17417C23.4742 5.82254 22.9973 5.625 22.5 5.625C22.2514 5.625 22.0129 5.52623 21.8371 5.35041C21.6613 5.1746 21.5625 4.93614 21.5625 4.6875C21.5625 4.43886 21.6613 4.2004 21.8371 4.02459C22.0129 3.84877 22.2514 3.75 22.5 3.75ZM15 22.5C16.9891 22.5 18.8968 21.7098 20.3033 20.3033C21.7098 18.8968 22.5 16.9891 22.5 15C22.5 13.0109 21.7098 11.1032 20.3033 9.6967C18.8968 8.29018 16.9891 7.5 15 7.5C13.0109 7.5 11.1032 8.29018 9.6967 9.6967C8.29018 11.1032 7.5 13.0109 7.5 15C7.5 16.9891 8.29018 18.8968 9.6967 20.3033C11.1032 21.7098 13.0109 22.5 15 22.5ZM17.1488 12.4613C17.2359 12.3741 17.3394 12.3049 17.4533 12.2578C17.5672 12.2106 17.6892 12.1863 17.8125 12.1863C17.9358 12.1863 18.0578 12.2106 18.1717 12.2578C18.2856 12.3049 18.3891 12.3741 18.4762 12.4613C18.5634 12.5484 18.6326 12.6519 18.6797 12.7658C18.7269 12.8797 18.7512 13.0017 18.7512 13.125C18.7512 13.2483 18.7269 13.3703 18.6797 13.4842C18.6326 13.5981 18.5634 13.7016 18.4762 13.7887L14.7262 17.5387C14.6392 17.6261 14.5357 17.6953 14.4218 17.7426C14.3079 17.7898 14.1858 17.8142 14.0625 17.8142C13.9392 17.8142 13.8171 17.7898 13.7032 17.7426C13.5893 17.6953 13.4858 17.6261 13.3988 17.5387L11.5238 15.6637C11.4366 15.5766 11.3674 15.4731 11.3203 15.3592C11.2731 15.2453 11.2488 15.1233 11.2488 15C11.2488 14.8767 11.2731 14.7547 11.3203 14.6408C11.3674 14.5269 11.4366 14.4234 11.5238 14.3363C11.6109 14.2491 11.7144 14.1799 11.8283 14.1328C11.9422 14.0856 12.0642 14.0613 12.1875 14.0613C12.3108 14.0613 12.4328 14.0856 12.5467 14.1328C12.6606 14.1799 12.7641 14.2491 12.8512 14.3363L14.0625 15.5494L17.1488 12.4613Z" fill="#00B700"/>
</svg>
