<svg width="51" height="50" viewBox="0 0 51 50" fill="none" xmlns="http://www.w3.org/2000/svg">
<path d="M16.7834 23.6289L15.4931 27.677H18.0737L16.7834 23.6289Z" fill="#B3B3B3"/>
<path d="M41.6866 6H21.0415V12.5292H26.2028V15.1409H9.42859C7.23504 15.1409 5.55762 16.8385 5.55762 19.0584V33.4227C5.55762 35.6426 7.23504 37.3402 9.42859 37.3402H10.7189V44L18.8479 37.3402H27.4931V28.1993H41.6866C43.8802 28.1993 45.5576 26.5017 45.5576 24.2818V9.91753C45.5576 7.69759 43.8802 6 41.6866 6ZM19.4931 31.9863L18.8479 29.8969H14.8479L14.0737 31.9863H10.977L15.235 20.3643H18.3318L22.5899 31.9863H19.4931ZM39.106 21.6701V24.2818C37.4286 24.2818 35.6221 23.7595 34.0737 22.9759C32.5254 23.7595 30.7189 24.1512 28.9125 24.2818L28.7834 21.6701C29.6866 21.6701 30.5899 21.5395 31.4931 21.2784C30.3318 20.1031 29.5576 18.6667 29.1705 17.0997H31.8802C32.2673 18.2749 33.0415 19.189 33.9447 19.9725C35.3641 18.7973 36.2673 17.0997 36.3963 15.1409H28.6544V12.5292H32.5254V9.91753H35.106V12.5292H39.3641L39.4931 13.8351C39.6221 16.5773 38.5899 19.3196 36.6544 21.2784C37.5576 21.5395 38.3318 21.6701 39.106 21.6701Z" fill="#B3B3B3"/>
</svg>
