<svg width="517" height="61" viewBox="0 0 517 61" fill="none" xmlns="http://www.w3.org/2000/svg">
<path d="M0 60.0615V0H26.3251C30.9497 0 34.8333 0.615866 37.9757 1.8476C41.1379 3.07933 43.5194 4.81939 45.1202 7.06779C46.7408 9.31618 47.5511 11.9654 47.5511 15.0154C47.5511 17.2247 47.057 19.2385 46.0689 21.0567C45.1005 22.875 43.7368 24.4 41.9778 25.6317C40.2189 26.8439 38.1634 27.6846 35.8116 28.1538V28.7404C38.4204 28.8381 40.792 29.4931 42.9265 30.7053C45.0609 31.8979 46.7606 33.55 48.0255 35.6615C49.2903 37.7535 49.9228 40.217 49.9228 43.0519C49.9228 46.3365 49.0532 49.2595 47.314 51.8207C45.5945 54.3819 43.1439 56.3957 39.9619 57.862C36.78 59.3284 32.9854 60.0615 28.5781 60.0615H0ZM16.4828 47.0404H24.1906C26.9575 47.0404 29.0327 46.5321 30.4161 45.5154C31.7996 44.4792 32.4913 42.9542 32.4913 40.9404C32.4913 39.5327 32.1652 38.3401 31.513 37.3625C30.8608 36.3849 29.9319 35.642 28.7263 35.1337C27.5405 34.6253 26.1077 34.3712 24.4278 34.3712H16.4828V47.0404ZM16.4828 24.2827H23.242C24.6847 24.2827 25.9594 24.0579 27.0662 23.6082C28.173 23.1585 29.0327 22.5133 29.6453 21.6726C30.2778 20.8123 30.594 19.7663 30.594 18.5346C30.594 16.6772 29.922 15.2598 28.5781 14.2822C27.2342 13.2851 25.5345 12.7865 23.4791 12.7865H16.4828V24.2827Z" fill="url(#paint0_linear_53_225)"/>
<path d="M55.7629 60.0615V0H72.2457V23.4615H94.0647V0H110.548V60.0615H94.0647V36.6H72.2457V60.0615H55.7629Z" fill="url(#paint1_linear_53_225)"/>
<path d="M118.374 0H134.857V31.4385H135.331L156.913 0H170.905V60.0615H154.423V28.5058H154.067L132.129 60.0615H118.374V0Z" fill="url(#paint2_linear_53_225)"/>
<path d="M178.702 0H199.217L213.328 34.0192H214.039L228.151 0H248.665V60.0615H232.538V25.3385H232.064L218.545 59.5923H208.822L195.304 25.1038H194.829V60.0615H178.702V0Z" fill="url(#paint3_linear_53_225)"/>
<path d="M272.248 60.0615H254.461L274.501 0H297.032L317.072 60.0615H299.285L286.004 16.5404H285.529L272.248 60.0615ZM268.928 36.3654H302.368V48.5654H268.928V36.3654Z" fill="url(#paint4_linear_53_225)"/>
<path d="M322.919 60.0615V0H339.402V23.4615H361.221V0H377.704V60.0615H361.221V36.6H339.402V60.0615H322.919Z" fill="url(#paint5_linear_53_225)"/>
<path d="M385.53 0H402.013V31.4385H402.487L424.069 0H438.062V60.0615H421.579V28.5058H421.223L399.286 60.0615H385.53V0Z" fill="url(#paint6_linear_53_225)"/>
<path d="M445.859 60.0615V0H489.615V13.1385H462.341V23.4615H487.362V36.6H462.341V46.9231H489.497V60.0615H445.859Z" fill="url(#paint7_linear_53_225)"/>
<path d="M517 0L515.458 41.2923H501.94L500.399 0H517ZM508.699 61C506.407 61 504.44 60.2082 502.8 58.6245C501.179 57.0213 500.379 55.076 500.399 52.7885C500.379 50.5596 501.179 48.6534 502.8 47.0697C504.44 45.4861 506.407 44.6942 508.699 44.6942C510.873 44.6942 512.79 45.4861 514.451 47.0697C516.13 48.6534 516.98 50.5596 517 52.7885C516.98 54.3135 516.575 55.7016 515.785 56.9529C515.014 58.1846 514.006 59.172 512.761 59.9149C511.516 60.6383 510.162 61 508.699 61Z" fill="url(#paint8_linear_53_225)"/>
<defs>
<linearGradient id="paint0_linear_53_225" x1="260.444" y1="0" x2="260.444" y2="61" gradientUnits="userSpaceOnUse">
<stop stop-color="#FF0000" stop-opacity="0.28"/>
<stop offset="1" stop-color="#FF0000" stop-opacity="0"/>
</linearGradient>
<linearGradient id="paint1_linear_53_225" x1="260.444" y1="0" x2="260.444" y2="61" gradientUnits="userSpaceOnUse">
<stop stop-color="#FF0000" stop-opacity="0.28"/>
<stop offset="1" stop-color="#FF0000" stop-opacity="0"/>
</linearGradient>
<linearGradient id="paint2_linear_53_225" x1="260.444" y1="0" x2="260.444" y2="61" gradientUnits="userSpaceOnUse">
<stop stop-color="#FF0000" stop-opacity="0.28"/>
<stop offset="1" stop-color="#FF0000" stop-opacity="0"/>
</linearGradient>
<linearGradient id="paint3_linear_53_225" x1="260.444" y1="0" x2="260.444" y2="61" gradientUnits="userSpaceOnUse">
<stop stop-color="#FF0000" stop-opacity="0.28"/>
<stop offset="1" stop-color="#FF0000" stop-opacity="0"/>
</linearGradient>
<linearGradient id="paint4_linear_53_225" x1="260.444" y1="0" x2="260.444" y2="61" gradientUnits="userSpaceOnUse">
<stop stop-color="#FF0000" stop-opacity="0.28"/>
<stop offset="1" stop-color="#FF0000" stop-opacity="0"/>
</linearGradient>
<linearGradient id="paint5_linear_53_225" x1="260.444" y1="0" x2="260.444" y2="61" gradientUnits="userSpaceOnUse">
<stop stop-color="#FF0000" stop-opacity="0.28"/>
<stop offset="1" stop-color="#FF0000" stop-opacity="0"/>
</linearGradient>
<linearGradient id="paint6_linear_53_225" x1="260.444" y1="0" x2="260.444" y2="61" gradientUnits="userSpaceOnUse">
<stop stop-color="#FF0000" stop-opacity="0.28"/>
<stop offset="1" stop-color="#FF0000" stop-opacity="0"/>
</linearGradient>
<linearGradient id="paint7_linear_53_225" x1="260.444" y1="0" x2="260.444" y2="61" gradientUnits="userSpaceOnUse">
<stop stop-color="#FF0000" stop-opacity="0.28"/>
<stop offset="1" stop-color="#FF0000" stop-opacity="0"/>
</linearGradient>
<linearGradient id="paint8_linear_53_225" x1="260.444" y1="0" x2="260.444" y2="61" gradientUnits="userSpaceOnUse">
<stop stop-color="#FF0000" stop-opacity="0.28"/>
<stop offset="1" stop-color="#FF0000" stop-opacity="0"/>
</linearGradient>
</defs>
</svg>
